<svg width="196" height="187" viewBox="0 0 196 187" fill="none" xmlns="http://www.w3.org/2000/svg">
  <path d="M144.888 161.528C143.959 162.072 142.81 162.076 141.878 161.539L1.50402 80.7834C0.573553 80.2481 1.73169e-06 79.2564 1.78054e-06 78.183L2.6105e-06 59.9454C2.7155e-06 57.6381 2.49599 56.1944 4.49598 57.345L160.591 147.145C162.588 148.294 162.599 151.172 160.61 152.335L144.888 161.528Z" fill="url(#paint0_linear_492_388)"/>
  <path d="M92.9347 185.984C94.9346 187.153 97.449 185.711 97.449 183.394V161.826C97.449 160.753 96.8754 159.761 95.945 159.226L4.49598 106.616C2.49598 105.465 1.60849e-06 106.909 1.45843e-06 109.216L1.11929e-07 129.92C4.2608e-08 130.986 0.565547 131.972 1.48566 132.51L92.9347 185.984Z" fill="url(#paint1_linear_492_388)"/>
  <path fill-rule="evenodd" clip-rule="evenodd" d="M187.362 136.692C186.433 137.235 185.284 137.239 184.352 136.703L1.50401 31.5123C0.573543 30.977 2.1378e-06 29.9854 2.19258e-06 28.9119L3.51496e-06 3.00001C3.59951e-06 1.34316 1.34315 8.55407e-06 3 8.48113e-06L75.3052 5.29783e-06C75.8303 5.27472e-06 76.3461 0.1378 76.8012 0.399619L170.228 54.1477C172.228 55.2983 174.724 53.8547 174.724 51.5474V29.2506C174.724 27.5937 173.381 26.2506 171.724 26.2506L164.449 26.2506C163.924 26.2506 163.409 26.1128 162.954 25.851L127.753 5.6004C125.09 4.06863 126.177 4.30371e-06 129.249 4.11437e-06L193 1.84913e-07C194.657 8.27881e-08 196 1.34315 196 3V88.9463C196 91.2536 193.504 92.6973 191.504 91.5467L73.9631 23.9264C73.5189 23.6709 73.0166 23.5334 72.5041 23.5271L41.9707 23.1507C38.8795 23.1126 37.7581 27.2093 40.4378 28.7509L194.496 117.379C195.426 117.915 196 118.906 196 119.98V129.92C196 130.986 195.434 131.972 194.514 132.51L187.362 136.692ZM154.556 56.7445C154.595 56.7445 154.609 56.6933 154.575 56.6741V56.6741C154.55 56.6596 154.518 56.6778 154.518 56.7068V56.7068C154.518 56.7276 154.535 56.7445 154.556 56.7445V56.7445Z" fill="url(#paint2_linear_492_388)"/>
  <defs>
    <linearGradient id="paint0_linear_492_388" x1="215.537" y1="158.16" x2="-19.9877" y2="158.16" gradientUnits="userSpaceOnUse">
      <stop stop-color="#00FDAB"/>
      <stop offset="1" stop-color="#6448FD"/>
    </linearGradient>
    <linearGradient id="paint1_linear_492_388" x1="215.537" y1="158.16" x2="-19.9877" y2="158.16" gradientUnits="userSpaceOnUse">
      <stop stop-color="#00FDAB"/>
      <stop offset="1" stop-color="#6448FD"/>
    </linearGradient>
    <linearGradient id="paint2_linear_492_388" x1="215.537" y1="158.16" x2="-19.9877" y2="158.16" gradientUnits="userSpaceOnUse">
      <stop stop-color="#00FDAB"/>
      <stop offset="1" stop-color="#6448FD"/>
    </linearGradient>
  </defs>
</svg>
